<?xml version="1.0" encoding="UTF-8" standalone="no"?>
<!-- Created with Inkscape (http://www.inkscape.org/) -->

<svg
   width="23.8125mm"
   height="7.4083333mm"
   viewBox="0 0 23.8125 7.4083335"
   version="1.1"
   id="svg5"
   xmlns="http://www.w3.org/2000/svg"
   xmlns:svg="http://www.w3.org/2000/svg">
  <defs
     id="defs2">
    <rect
       x="28.061144"
       y="22.448914"
       width="212.56316"
       height="43.49477"
       id="rect3775" />
  </defs>
  <g
     id="layer1"
     transform="translate(-20.738153,-101.0985)">
    <rect
       style="fill:#000000;fill-rule:evenodd;stroke-width:0.0888773"
       id="rect31"
       width="23.8125"
       height="7.4083333"
       x="20.738153"
       y="101.0985"
       ry="2.3513889" />
    <text
       xml:space="preserve"
       transform="matrix(0.26458333,0,0,0.26458333,20.738153,101.0985)"
       id="text3773"
       style="font-style:normal;font-weight:normal;font-size:40px;line-height:1.25;font-family:sans-serif;white-space:pre;shape-inside:url(#rect3775);fill:#ffffff;fill-opacity:1;stroke:none"><tspan
         x="28.060547"
         y="102.43657"
         id="tspan963"><tspan
           dx="0 20.839844 24.277344 24.921875 10.976562 23.828125 24.921875"
           id="tspan961">copied!</tspan></tspan></text>
    <g
       aria-label="copied!"
       transform="scale(1.0074907,0.99256499)"
       id="text18345"
       style="font-size:4.89162px;line-height:1.25;stroke-width:0.122291">
      <path
         d="m 24.359658,107.02559 q -0.351108,0 -0.642503,-0.0836 -0.289007,-0.0836 -0.503971,-0.25796 -0.212575,-0.17435 -0.329611,-0.43948 -0.117035,-0.26512 -0.117035,-0.621 0,-0.375 0.124201,-0.64728 0.12659,-0.27229 0.351107,-0.45143 0.217353,-0.16958 0.501582,-0.2484 0.28423,-0.0788 0.589957,-0.0788 0.274676,0 0.506359,0.0597 0.231683,0.0597 0.432316,0.15525 v 0.73327 h -0.121813 q -0.05016,-0.043 -0.121813,-0.10032 -0.06927,-0.0573 -0.171971,-0.11226 -0.09793,-0.0525 -0.214964,-0.086 -0.117035,-0.0358 -0.272287,-0.0358 -0.343942,0 -0.530244,0.21974 -0.183914,0.21735 -0.183914,0.59235 0,0.38693 0.188691,0.58756 0.191079,0.20064 0.539798,0.20064 0.162417,0 0.291395,-0.0358 0.131367,-0.0382 0.217352,-0.0884 0.08121,-0.0478 0.14331,-0.10032 0.0621,-0.0525 0.114647,-0.10271 h 0.121813 v 0.73327 q -0.203022,0.0955 -0.425151,0.15047 -0.219741,0.0573 -0.487251,0.0573 z"
         style="font-weight:bold;-inkscape-font-specification:'sans-serif Bold';fill:#ffffff"
         id="path911" />
      <path
         d="m 28.582502,105.61399 q 0,0.66161 -0.386935,1.04377 -0.384546,0.37977 -1.081984,0.37977 -0.697438,0 -1.084373,-0.37977 -0.384546,-0.38216 -0.384546,-1.04377 0,-0.66638 0.386934,-1.04615 0.389324,-0.37977 1.081985,-0.37977 0.702215,0 1.084373,0.38215 0.384546,0.38216 0.384546,1.04377 z m -1.0581,0.65206 q 0.0836,-0.10271 0.124202,-0.24601 0.04299,-0.1457 0.04299,-0.40127 0,-0.23646 -0.04299,-0.39649 -0.04299,-0.16003 -0.119425,-0.25557 -0.07643,-0.0979 -0.183913,-0.13853 -0.107482,-0.0406 -0.231683,-0.0406 -0.124201,0 -0.222129,0.0334 -0.09554,0.0334 -0.183914,0.13375 -0.07882,0.0932 -0.12659,0.25557 -0.04538,0.16242 -0.04538,0.40843 0,0.21974 0.0406,0.38216 0.0406,0.16003 0.119425,0.25795 0.07643,0.0932 0.181525,0.13615 0.107482,0.043 0.243625,0.043 0.117036,0 0.222129,-0.0382 0.107482,-0.0406 0.181525,-0.13375 z"
         style="font-weight:bold;-inkscape-font-specification:'sans-serif Bold';fill:#ffffff"
         id="path913" />
      <path
         d="m 31.998038,105.57578 q 0,0.332 -0.102705,0.60428 -0.100317,0.27229 -0.265122,0.44904 -0.171971,0.1863 -0.389324,0.28184 -0.217352,0.0955 -0.465754,0.0955 -0.229295,0 -0.389324,-0.0502 -0.160028,-0.0478 -0.327222,-0.13614 v 1.11781 h -0.859855 v -3.66633 h 0.859855 v 0.27946 q 0.198244,-0.15764 0.403654,-0.25557 0.207798,-0.0979 0.477697,-0.0979 0.501582,0 0.778647,0.36783 0.279453,0.36782 0.279453,1.01033 z m -0.886129,0.0167 q 0,-0.39172 -0.133755,-0.56846 -0.133755,-0.17675 -0.422762,-0.17675 -0.121813,0 -0.250791,0.0382 -0.128979,0.0358 -0.246014,0.1051 v 1.34949 q 0.08599,0.0334 0.183913,0.043 0.09793,0.01 0.193467,0.01 0.341554,0 0.508748,-0.19824 0.167194,-0.20064 0.167194,-0.6019 z"
         style="font-weight:bold;-inkscape-font-specification:'sans-serif Bold';fill:#ffffff"
         id="path915" />
      <path
         d="m 33.478899,106.95393 h -0.859855 v -2.68227 h 0.859855 z m 0.02388,-3.06442 h -0.907625 v -0.65206 h 0.907625 z"
         style="font-weight:bold;-inkscape-font-specification:'sans-serif Bold';fill:#ffffff"
         id="path917" />
      <path
         d="m 36.932651,105.77163 h -1.968113 q 0.01911,0.31528 0.238849,0.48248 0.222129,0.16719 0.652056,0.16719 0.272288,0 0.527856,-0.0979 0.255568,-0.0979 0.403654,-0.21018 h 0.09554 v 0.69027 q -0.291395,0.11703 -0.549351,0.16958 -0.257957,0.0525 -0.570849,0.0525 -0.807308,0 -1.237236,-0.36305 -0.429927,-0.36305 -0.429927,-1.03422 0,-0.664 0.406043,-1.05093 0.408431,-0.38932 1.117811,-0.38932 0.654445,0 0.984057,0.332 0.329611,0.32961 0.329611,0.95061 z m -0.855078,-0.50397 q -0.0072,-0.2699 -0.133756,-0.40604 -0.126589,-0.13614 -0.3941,-0.13614 -0.248403,0 -0.408431,0.12897 -0.160029,0.12898 -0.179137,0.41321 z"
         style="font-weight:bold;-inkscape-font-specification:'sans-serif Bold';fill:#ffffff"
         id="path919" />
      <path
         d="m 40.147553,106.95393 h -0.859855 v -0.27945 q -0.222129,0.18153 -0.415596,0.26751 -0.193468,0.086 -0.446647,0.086 -0.48964,0 -0.783424,-0.37738 -0.293784,-0.37738 -0.293784,-1.0175 0,-0.34155 0.09793,-0.60429 0.100317,-0.26512 0.272288,-0.45381 0.162417,-0.17914 0.3941,-0.27706 0.231683,-0.10032 0.463366,-0.10032 0.241238,0 0.394101,0.0525 0.155251,0.0502 0.317668,0.12898 v -1.1417 h 0.859855 z m -0.859855,-0.74043 v -1.31605 q -0.09076,-0.0382 -0.191079,-0.0549 -0.100316,-0.0167 -0.183913,-0.0167 -0.339165,0 -0.508748,0.21258 -0.169582,0.21018 -0.169582,0.58518 0,0.3941 0.136144,0.57323 0.136143,0.17675 0.437093,0.17675 0.117035,0 0.248402,-0.043 0.131367,-0.0454 0.231683,-0.11704 z"
         style="font-weight:bold;-inkscape-font-specification:'sans-serif Bold';fill:#ffffff"
         id="path921" />
      <path
         d="m 42.036847,103.39748 -0.109871,2.53179 H 41.14833 l -0.109871,-2.53179 z m -0.01672,3.55645 h -0.964948 v -0.63056 h 0.964948 z"
         style="font-weight:bold;-inkscape-font-specification:'sans-serif Bold';fill:#ffffff"
         id="path923" />
    </g>
  </g>
</svg>
