<?xml version="1.0" encoding="UTF-8" standalone="no"?>
<!-- Created with Inkscape (http://www.inkscape.org/) -->

<svg
   width="86.004799mm"
   height="18.866455mm"
   viewBox="0 0 86.004802 18.866455"
   version="1.1"
   id="svg5"
   inkscape:version="1.1.1 (3bf5ae0d25, 2021-09-20)"
   sodipodi:docname="logo.svg"
   xmlns:inkscape="http://www.inkscape.org/namespaces/inkscape"
   xmlns:sodipodi="http://sodipodi.sourceforge.net/DTD/sodipodi-0.dtd"
   xmlns="http://www.w3.org/2000/svg"
   xmlns:svg="http://www.w3.org/2000/svg">
  <sodipodi:namedview
     id="namedview7"
     pagecolor="#ffffff"
     bordercolor="#666666"
     borderopacity="1.0"
     inkscape:pageshadow="2"
     inkscape:pageopacity="0.0"
     inkscape:pagecheckerboard="0"
     inkscape:document-units="mm"
     showgrid="false"
     inkscape:zoom="2.1649824"
     inkscape:cx="142.26444"
     inkscape:cy="134.64313"
     inkscape:window-width="1920"
     inkscape:window-height="991"
     inkscape:window-x="1271"
     inkscape:window-y="-9"
     inkscape:window-maximized="1"
     inkscape:current-layer="layer1" />
  <defs
     id="defs2">
    <rect
       x="74.8274"
       y="235.56773"
       width="343.65176"
       height="30.947134"
       id="rect28829" />
    <rect
       x="35.104214"
       y="176.90675"
       width="382.45114"
       height="91.455711"
       id="rect90912" />
    <rect
       x="35.104214"
       y="176.90675"
       width="356.5849"
       height="67.898933"
       id="rect81160" />
    <rect
       x="107.16022"
       y="199.07784"
       width="231.41066"
       height="136.72166"
       id="rect68860" />
    <rect
       x="30.485235"
       y="166.28311"
       width="401.38895"
       height="99.307968"
       id="rect48646" />
    <rect
       x="159.81654"
       y="65.127548"
       width="259.5864"
       height="67.437035"
       id="rect5162" />
    <rect
       x="28.061144"
       y="22.448914"
       width="212.56316"
       height="43.49477"
       id="rect3775" />
  </defs>
  <g
     inkscape:label="Layer 1"
     inkscape:groupmode="layer"
     id="layer1"
     transform="translate(-26.615332,-102.4502)">
    <rect
       style="fill:#008000;stroke-width:0.114764"
       id="rect872"
       width="86.004799"
       height="18.866455"
       x="26.615332"
       y="102.4502" />
    <g
       id="g37187"
       transform="matrix(0.45921993,0,0,0.45921993,12.118381,55.874914)">
      <path
         d="m 47.66225,106.59601 c -8.48339,0 -15.36846,6.88507 -15.36846,15.36845 0,8.48339 6.88507,15.36846 15.36846,15.36846 7.3327,0 13.47142,-5.14117 15.00184,-12.01534 h -7.31762 c -1.29411,2.96024 -4.2484,5.02968 -7.68422,5.02968 -4.62731,0 -8.3828,-3.75549 -8.3828,-8.3828 0,-4.6273 3.75549,-8.38279 8.3828,-8.38279 3.32573,0 6.19879,1.94078 7.55317,4.75025 h 7.37854 c -1.63308,-6.7325 -7.69932,-11.73591 -14.93199,-11.73591 z"
         id="path4"
         style="fill:#ffffff;stroke-width:0.279426" />
      <text
         xml:space="preserve"
         transform="matrix(0.67015736,0,0,0.74551854,-42.894455,60.671166)"
         id="text5160"
         style="font-style:normal;font-weight:normal;font-size:40.146px;line-height:1.25;font-family:sans-serif;white-space:pre;shape-inside:url(#rect5162);fill:#ffffff;fill-opacity:1;stroke:none"><tspan
           x="159.81641"
           y="101.75337"
           id="tspan1509"><tspan
             style="font-weight:bold;-inkscape-font-specification:'sans-serif Bold'"
             id="tspan1507">OPY</tspan></tspan></text>
    </g>
    <g
       id="g37182"
       transform="matrix(0.45921993,0,0,0.45921993,51.675919,45.139066)">
      <rect
         style="fill:#328ffe;fill-opacity:1;stroke-width:0.296544"
         id="rect12318"
         width="76.634659"
         height="15.703792"
         x="41.770653"
         y="145.07645"
         ry="0" />
      <text
         xml:space="preserve"
         transform="matrix(0.40280228,0,0,0.40280228,29.468793,72.510918)"
         id="text90910"
         style="font-style:normal;font-weight:normal;font-size:40px;line-height:1.25;font-family:sans-serif;white-space:pre;shape-inside:url(#rect90912);fill:#ffffff;fill-opacity:1;stroke:none"><tspan
           x="35.103516"
           y="213.39946"
           id="tspan1511">on select</tspan></text>
      <g
         fill-rule="evenodd"
         stroke="#000000"
         id="g20"
         transform="matrix(0.06740087,0,0,0.06740087,116.41259,148.07373)"
         style="display:inline;fill:#ffffff;fill-opacity:1">
        <path
           d="m 30.455,17.329 -0.7998,-17.331 -1.3564,17.474 0.946,0.4034 1.2101,-0.5466 z"
           id="path2"
           style="fill:#ffffff;fill-opacity:1" />
        <path
           d="m 30.365,40.641 -0.7998,17.331 -1.3564,-17.474 0.946,-0.4034 1.2101,0.5466 z"
           id="path4-2"
           style="fill:#ffffff;fill-opacity:1" />
        <path
           d="m 41.244,27.688 17.331,0.7998 -17.474,1.3564 -0.4034,-0.946 0.5466,-1.2101 z"
           id="path6"
           style="fill:#ffffff;fill-opacity:1" />
        <path
           d="m 17.33,27.778 -17.331,0.7998 17.474,1.3564 0.4034,-0.946 -0.5466,-1.2101 z"
           id="path8"
           style="fill:#ffffff;fill-opacity:1" />
        <path
           d="M 19.802,35.703 1.218,55.386 21.409,37.148 21.0381,36.1888 19.8023,35.703 Z"
           id="path10"
           style="fill:#ffffff;fill-opacity:1" />
        <path
           d="M 39.061,36.067 57.645,55.75 37.454,37.512 37.8249,36.5528 39.0607,36.067 Z"
           id="path12"
           style="fill:#ffffff;fill-opacity:1" />
        <path
           d="M 18.679,22.264 0.094,2.581 20.285,20.819 19.9141,21.7782 18.6783,22.264 Z"
           id="path14"
           style="fill:#ffffff;fill-opacity:1" />
        <path
           d="M 38.615,21.901 57.2,2.218 37.009,20.456 l 0.3709,0.9592 1.2358,0.4858 z"
           id="path16"
           style="fill:#ffffff;fill-opacity:1" />
        <path
           d="M 197.45,130.87 27.38,24.71 l 96.609,181.19 24.298,-23.676 50.883,54.642 23.438,-22.837 -51.268,-55.994 26.109,-27.172 z"
           fill="#cccccc"
           stroke-linecap="round"
           stroke-linejoin="round"
           stroke-width="4"
           id="path18"
           style="fill:#ffffff;fill-opacity:1" />
      </g>
    </g>
    <g
       id="g51355"
       style="display:none"
       transform="matrix(0.3331308,0,0,0.3331308,87.959372,62.413145)">
      <rect
         style="fill:#000000;fill-rule:evenodd;stroke-width:0.0888773"
         id="rect31"
         width="23.8125"
         height="7.4083333"
         x="61.637871"
         y="141.88631"
         ry="2.3513889" />
      <text
         xml:space="preserve"
         transform="matrix(0.26458333,0,0,0.26458333,61.63787,141.8863)"
         id="text3773"
         style="font-style:normal;font-weight:normal;font-size:40px;line-height:1.25;font-family:sans-serif;white-space:pre;shape-inside:url(#rect3775);fill:#ffffff;fill-opacity:1;stroke:none"><tspan
           x="28.060547"
           y="102.43657"
           id="tspan1515"><tspan
             dx="0 20.839844 24.277344 24.921875 10.976562 23.828125 24.921875"
             id="tspan1513">copied!</tspan></tspan></text>
      <g
         aria-label="copied!"
         transform="matrix(1.0074907,0,0,0.99256499,40.899717,40.787798)"
         id="text18345"
         style="font-size:4.89162px;line-height:1.25;stroke-width:0.122291">
        <path
           d="m 24.359658,107.02559 q -0.351108,0 -0.642503,-0.0836 -0.289007,-0.0836 -0.503971,-0.25796 -0.212575,-0.17435 -0.329611,-0.43948 -0.117035,-0.26512 -0.117035,-0.621 0,-0.375 0.124201,-0.64728 0.12659,-0.27229 0.351107,-0.45143 0.217353,-0.16958 0.501582,-0.2484 0.28423,-0.0788 0.589957,-0.0788 0.274676,0 0.506359,0.0597 0.231683,0.0597 0.432316,0.15525 v 0.73327 h -0.121813 q -0.05016,-0.043 -0.121813,-0.10032 -0.06927,-0.0573 -0.171971,-0.11226 -0.09793,-0.0525 -0.214964,-0.086 -0.117035,-0.0358 -0.272287,-0.0358 -0.343942,0 -0.530244,0.21974 -0.183914,0.21735 -0.183914,0.59235 0,0.38693 0.188691,0.58756 0.191079,0.20064 0.539798,0.20064 0.162417,0 0.291395,-0.0358 0.131367,-0.0382 0.217352,-0.0884 0.08121,-0.0478 0.14331,-0.10032 0.0621,-0.0525 0.114647,-0.10271 h 0.121813 v 0.73327 q -0.203022,0.0955 -0.425151,0.15047 -0.219741,0.0573 -0.487251,0.0573 z"
           style="font-weight:bold;-inkscape-font-specification:'sans-serif Bold';fill:#ffffff"
           id="path911" />
        <path
           d="m 28.582502,105.61399 q 0,0.66161 -0.386935,1.04377 -0.384546,0.37977 -1.081984,0.37977 -0.697438,0 -1.084373,-0.37977 -0.384546,-0.38216 -0.384546,-1.04377 0,-0.66638 0.386934,-1.04615 0.389324,-0.37977 1.081985,-0.37977 0.702215,0 1.084373,0.38215 0.384546,0.38216 0.384546,1.04377 z m -1.0581,0.65206 q 0.0836,-0.10271 0.124202,-0.24601 0.04299,-0.1457 0.04299,-0.40127 0,-0.23646 -0.04299,-0.39649 -0.04299,-0.16003 -0.119425,-0.25557 -0.07643,-0.0979 -0.183913,-0.13853 -0.107482,-0.0406 -0.231683,-0.0406 -0.124201,0 -0.222129,0.0334 -0.09554,0.0334 -0.183914,0.13375 -0.07882,0.0932 -0.12659,0.25557 -0.04538,0.16242 -0.04538,0.40843 0,0.21974 0.0406,0.38216 0.0406,0.16003 0.119425,0.25795 0.07643,0.0932 0.181525,0.13615 0.107482,0.043 0.243625,0.043 0.117036,0 0.222129,-0.0382 0.107482,-0.0406 0.181525,-0.13375 z"
           style="font-weight:bold;-inkscape-font-specification:'sans-serif Bold';fill:#ffffff"
           id="path913" />
        <path
           d="m 31.998038,105.57578 q 0,0.332 -0.102705,0.60428 -0.100317,0.27229 -0.265122,0.44904 -0.171971,0.1863 -0.389324,0.28184 -0.217352,0.0955 -0.465754,0.0955 -0.229295,0 -0.389324,-0.0502 -0.160028,-0.0478 -0.327222,-0.13614 v 1.11781 h -0.859855 v -3.66633 h 0.859855 v 0.27946 q 0.198244,-0.15764 0.403654,-0.25557 0.207798,-0.0979 0.477697,-0.0979 0.501582,0 0.778647,0.36783 0.279453,0.36782 0.279453,1.01033 z m -0.886129,0.0167 q 0,-0.39172 -0.133755,-0.56846 -0.133755,-0.17675 -0.422762,-0.17675 -0.121813,0 -0.250791,0.0382 -0.128979,0.0358 -0.246014,0.1051 v 1.34949 q 0.08599,0.0334 0.183913,0.043 0.09793,0.01 0.193467,0.01 0.341554,0 0.508748,-0.19824 0.167194,-0.20064 0.167194,-0.6019 z"
           style="font-weight:bold;-inkscape-font-specification:'sans-serif Bold';fill:#ffffff"
           id="path915" />
        <path
           d="m 33.478899,106.95393 h -0.859855 v -2.68227 h 0.859855 z m 0.02388,-3.06442 h -0.907625 v -0.65206 h 0.907625 z"
           style="font-weight:bold;-inkscape-font-specification:'sans-serif Bold';fill:#ffffff"
           id="path917" />
        <path
           d="m 36.932651,105.77163 h -1.968113 q 0.01911,0.31528 0.238849,0.48248 0.222129,0.16719 0.652056,0.16719 0.272288,0 0.527856,-0.0979 0.255568,-0.0979 0.403654,-0.21018 h 0.09554 v 0.69027 q -0.291395,0.11703 -0.549351,0.16958 -0.257957,0.0525 -0.570849,0.0525 -0.807308,0 -1.237236,-0.36305 -0.429927,-0.36305 -0.429927,-1.03422 0,-0.664 0.406043,-1.05093 0.408431,-0.38932 1.117811,-0.38932 0.654445,0 0.984057,0.332 0.329611,0.32961 0.329611,0.95061 z m -0.855078,-0.50397 q -0.0072,-0.2699 -0.133756,-0.40604 -0.126589,-0.13614 -0.3941,-0.13614 -0.248403,0 -0.408431,0.12897 -0.160029,0.12898 -0.179137,0.41321 z"
           style="font-weight:bold;-inkscape-font-specification:'sans-serif Bold';fill:#ffffff"
           id="path919" />
        <path
           d="m 40.147553,106.95393 h -0.859855 v -0.27945 q -0.222129,0.18153 -0.415596,0.26751 -0.193468,0.086 -0.446647,0.086 -0.48964,0 -0.783424,-0.37738 -0.293784,-0.37738 -0.293784,-1.0175 0,-0.34155 0.09793,-0.60429 0.100317,-0.26512 0.272288,-0.45381 0.162417,-0.17914 0.3941,-0.27706 0.231683,-0.10032 0.463366,-0.10032 0.241238,0 0.394101,0.0525 0.155251,0.0502 0.317668,0.12898 v -1.1417 h 0.859855 z m -0.859855,-0.74043 v -1.31605 q -0.09076,-0.0382 -0.191079,-0.0549 -0.100316,-0.0167 -0.183913,-0.0167 -0.339165,0 -0.508748,0.21258 -0.169582,0.21018 -0.169582,0.58518 0,0.3941 0.136144,0.57323 0.136143,0.17675 0.437093,0.17675 0.117035,0 0.248402,-0.043 0.131367,-0.0454 0.231683,-0.11704 z"
           style="font-weight:bold;-inkscape-font-specification:'sans-serif Bold';fill:#ffffff"
           id="path921" />
        <path
           d="m 42.036847,103.39748 -0.109871,2.53179 H 41.14833 l -0.109871,-2.53179 z m -0.01672,3.55645 h -0.964948 v -0.63056 h 0.964948 z"
           style="font-weight:bold;-inkscape-font-specification:'sans-serif Bold';fill:#ffffff"
           id="path923" />
      </g>
    </g>
  </g>
</svg>
