<?xml version="1.0" encoding="UTF-8" standalone="no"?>
<svg
   xmlns:dc="http://purl.org/dc/elements/1.1/"
   xmlns:cc="http://creativecommons.org/ns#"
   xmlns:rdf="http://www.w3.org/1999/02/22-rdf-syntax-ns#"
   xmlns:svg="http://www.w3.org/2000/svg"
   xmlns="http://www.w3.org/2000/svg"
   xmlns:sodipodi="http://sodipodi.sourceforge.net/DTD/sodipodi-0.dtd"
   xmlns:inkscape="http://www.inkscape.org/namespaces/inkscape"
   enable-background="new 0 0 595.28 841.89"
   version="1.1"
   viewBox="0 0 17.999999 17.999999"
   xml:space="preserve"
   id="svg20"
   sodipodi:docname="question_mark.svg"
   width="18"
   height="18"
   inkscape:version="0.92.1 r15371"><metadata
     id="metadata26"><rdf:RDF><cc:Work
         rdf:about=""><dc:format>image/svg+xml</dc:format><dc:type
           rdf:resource="http://purl.org/dc/dcmitype/StillImage" /></cc:Work></rdf:RDF></metadata><defs
     id="defs24" /><sodipodi:namedview
     pagecolor="#ffffff"
     bordercolor="#666666"
     borderopacity="1"
     objecttolerance="10"
     gridtolerance="10"
     guidetolerance="10"
     inkscape:pageopacity="0"
     inkscape:pageshadow="2"
     inkscape:window-width="1366"
     inkscape:window-height="705"
     id="namedview22"
     showgrid="false"
     inkscape:zoom="8.4027039"
     inkscape:cx="27.933579"
     inkscape:cy="5.0696443"
     inkscape:window-x="1144"
     inkscape:window-y="-8"
     inkscape:window-maximized="1"
     inkscape:current-layer="svg20" /><circle
     cx="9"
     cy="9"
     r="9"
     id="circle8"
     style="display:none;fill:#00a995;stroke-width:0.06" /><path
     d="m 4.0050728,5.6136446 c 0,-0.6326308 0.203038,-1.2737078 0.6093626,-1.9229825 C 5.0205115,3.0413047 5.6133959,2.5035684 6.3926745,2.0772879 7.1718704,1.6511729 8.0809874,1.437867 9.1199427,1.437867 c 0.9655073,0 1.8181523,0.1782794 2.5574363,0.5345069 0.7392,0.356393 1.310141,0.8408856 1.713237,1.4535604 0.402846,0.6128404 0.604311,1.2786761 0.604311,1.9979211 0,0.5661383 -0.114819,1.0623891 -0.344552,1.4885041 -0.229784,0.4262805 -0.503041,0.7941835 -0.819274,1.1038746 -0.316398,0.309691 -0.884192,0.8309489 -1.7033,1.5633599 -0.226389,0.206599 -0.407981,0.388107 -0.544444,0.544444 -0.136491,0.156584 -0.238065,0.299671 -0.30464,0.429593 -0.0668,0.129727 -0.118412,0.25976 -0.154846,0.389515 -0.03671,0.129866 -0.09164,0.358049 -0.1648648,0.684384 -0.126553,0.692664 -0.522748,1.038955 -1.1886666,1.038955 -0.3464566,0 -0.6378477,-0.113168 -0.8741732,-0.339667 C 7.6596751,12.100513 7.541512,11.764076 7.541512,11.317756 c 0,-0.559432 0.086394,-1.043924 0.2597597,-1.453561 C 7.9743344,9.454641 8.2041185,9.094936 8.4905413,8.7853277 8.7768814,8.4756366 9.163167,8.1077337 9.6493983,7.6814531 10.075513,7.3085819 10.383632,7.0271274 10.573504,6.837338 c 0.189705,-0.1897892 0.349603,-0.4011905 0.479441,-0.6343697 0.129866,-0.2330135 0.194841,-0.4860658 0.194841,-0.759157 0,-0.5327679 -0.198236,-0.9823167 -0.594375,-1.3486464 C 10.257022,3.7290008 9.7458663,3.5457533 9.1199427,3.5457533 8.3872006,3.5457533 7.8477255,3.7305742 7.5015175,4.100216 7.1551438,4.4697752 6.8621793,5.0143014 6.6223759,5.7335463 6.3959039,6.4862445 5.9663111,6.8623452 5.3336803,6.8623452 4.9606434,6.8623452 4.6459841,6.7309612 4.3896195,6.467779 4.1331722,6.2048729 4.0050728,5.9201061 4.0050728,5.6136446 Z M 8.8801393,16.562133 c -0.4062418,0 -0.7609787,-0.131521 -1.0638798,-0.394649 C 7.51311,15.904413 7.3617423,15.536675 7.3617423,15.063609 c 0,-0.41949 0.1463994,-0.772488 0.4395294,-1.05891 0.2929645,-0.286258 0.6525869,-0.429594 1.0788675,-0.429594 0.4195733,0 0.772489,0.143253 1.058994,0.429594 0.2862568,0.286422 0.4295938,0.63942 0.4295938,1.05891 0,0.466358 -0.149961,0.832606 -0.4495498,1.098907 -0.299754,0.266301 -0.6462108,0.399617 -1.0390379,0.399617 z"
     id="path12"
     inkscape:connector-curvature="0"
     style="fill:#ffffff;stroke-width:0.08280508" /></svg>